<svg width="24" height="29" viewBox="0 0 24 29" fill="none" xmlns="http://www.w3.org/2000/svg">
<path d="M15.3823 2V13.5385L21.4536 22.3269C21.7493 22.7525 21.9335 23.2642 21.9851 23.8035C22.0367 24.3427 21.9535 24.8875 21.7452 25.3754C21.5368 25.8634 21.2117 26.2746 20.8072 26.5619C20.4026 26.8493 19.935 27.0011 19.458 27H4.54198C4.065 27.0011 3.59739 26.8493 3.19284 26.5619C2.78829 26.2746 2.46318 25.8634 2.25482 25.3754C2.04646 24.8875 1.9633 24.3427 2.01488 23.8035C2.06645 23.2642 2.25068 22.7525 2.54641 22.3269L8.61768 13.5385V2" fill="white"/>
<path d="M15.3823 2V13.5385L21.4536 22.3269C21.7493 22.7525 21.9335 23.2642 21.9851 23.8035C22.0367 24.3427 21.9535 24.8875 21.7452 25.3754C21.5368 25.8634 21.2117 26.2746 20.8072 26.5619C20.4026 26.8493 19.935 27.0011 19.458 27H4.54198C4.065 27.0011 3.59739 26.8493 3.19284 26.5619C2.78829 26.2746 2.46318 25.8634 2.25482 25.3754C2.04646 24.8875 1.9633 24.3427 2.01488 23.8035C2.06645 23.2642 2.25068 22.7525 2.54641 22.3269L8.61768 13.5385V2" stroke="white" stroke-width="3" stroke-linecap="round" stroke-linejoin="round"/>
<path d="M6.0809 2H17.919" stroke="white" stroke-width="3" stroke-linecap="round" stroke-linejoin="round"/>
</svg>
