<svg width="34" height="34" viewBox="0 0 34 34" fill="none" xmlns="http://www.w3.org/2000/svg">
<path d="M25.0769 26.2308H29.6923C30.3043 26.2308 30.8913 25.9877 31.3241 25.5549C31.7569 25.1222 32 24.5352 32 23.9231V13.5385C32 12.9265 31.7569 12.3395 31.3241 11.9067C30.8913 11.474 30.3043 11.2308 29.6923 11.2308H4.30769C3.69565 11.2308 3.10868 11.474 2.67591 11.9067C2.24313 12.3395 2 12.9265 2 13.5385V23.9231C2 24.5352 2.24313 25.1222 2.67591 25.5549C3.10868 25.9877 3.69565 26.2308 4.30769 26.2308H8.92308" stroke="#05668D" stroke-width="3" stroke-linecap="round" stroke-linejoin="round"/>
<path d="M8.9231 22.7692V30.8461C8.9231 31.1521 9.04466 31.4456 9.26105 31.662C9.47744 31.8784 9.77092 31.9999 10.0769 31.9999H23.9231C24.2291 31.9999 24.5226 31.8784 24.739 31.662C24.9554 31.4456 25.0769 31.1521 25.0769 30.8461V22.7692H8.9231Z" stroke="#05668D" stroke-width="3" stroke-linecap="round" stroke-linejoin="round"/>
<path d="M25.0769 11.2308V3.15385C25.0769 2.84783 24.9554 2.55434 24.739 2.33795C24.5226 2.12157 24.2291 2 23.9231 2H10.0769C9.77092 2 9.47744 2.12157 9.26105 2.33795C9.04466 2.55434 8.9231 2.84783 8.9231 3.15385V11.2308" stroke="#05668D" stroke-width="3" stroke-linecap="round" stroke-linejoin="round"/>
<path d="M26.2308 17H23.9231" stroke="#05668D" stroke-width="3" stroke-linecap="round" stroke-linejoin="round"/>
</svg>
