<svg width="34" height="34" viewBox="0 0 34 34" fill="none" xmlns="http://www.w3.org/2000/svg">
<path d="M18.1647 2.75513L21.8426 10.4979C21.9263 10.6944 22.0579 10.8647 22.2243 10.9916C22.3907 11.1186 22.5861 11.1979 22.791 11.2215L30.9101 12.4758C31.1452 12.5073 31.3669 12.6079 31.5492 12.7659C31.7315 12.9238 31.8669 13.1326 31.9397 13.3678C32.0124 13.603 32.0195 13.855 31.9601 14.0943C31.9007 14.3335 31.7772 14.5502 31.6041 14.719L25.7518 20.7734C25.6025 20.9189 25.4904 21.101 25.4257 21.3032C25.3611 21.5054 25.346 21.7213 25.3817 21.9311L26.7927 30.4458C26.8336 30.6904 26.8078 30.9421 26.7182 31.1723C26.6287 31.4024 26.4789 31.6017 26.2861 31.7474C26.0933 31.8932 25.8651 31.9796 25.6276 31.9968C25.39 32.014 25.1525 31.9613 24.9422 31.8448L17.6327 27.8166C17.4455 27.7208 17.2398 27.671 17.0313 27.671C16.8228 27.671 16.617 27.7208 16.4299 27.8166L9.12032 31.8448C8.91003 31.9613 8.67258 32.014 8.435 31.9968C8.19742 31.9796 7.96924 31.8932 7.77642 31.7474C7.58361 31.6017 7.4339 31.4024 7.34434 31.1723C7.25478 30.9421 7.22896 30.6904 7.26981 30.4458L8.68083 21.8347C8.71659 21.6248 8.70146 21.409 8.63682 21.2067C8.57218 21.0045 8.46009 20.8224 8.31072 20.6769L2.38908 14.719C2.21388 14.5456 2.09068 14.3229 2.03439 14.0779C1.9781 13.833 1.99113 13.5762 2.07191 13.3388C2.1527 13.1014 2.29776 12.8936 2.48954 12.7404C2.68131 12.5872 2.91157 12.4953 3.15241 12.4758L11.2715 11.2215C11.4765 11.1979 11.6719 11.1186 11.8383 10.9916C12.0047 10.8647 12.1363 10.6944 12.2199 10.4979L15.8978 2.75513C15.998 2.52963 16.1579 2.3387 16.3588 2.2049C16.5596 2.0711 16.793 2 17.0313 2C17.2696 2 17.503 2.0711 17.7038 2.2049C17.9046 2.3387 18.0646 2.52963 18.1647 2.75513V2.75513Z" stroke="white" stroke-width="3" stroke-linecap="round" stroke-linejoin="round"/>
</svg>
